<svg xmlns="http://www.w3.org/2000/svg" version="1.1" xmlns:xlink="http://www.w3.org/1999/xlink" xmlns:svgjs="http://svgjs.dev/svgjs" width="1000" height="1000" viewBox="0 0 1000 1000"><rect width="1000" height="1000" fill="#ffffff"></rect><g transform="matrix(0.7,0,0,0.7,149.57575757575756,282.1265587044535)"><svg viewBox="0 0 396 247" data-background-color="#ffffff" preserveAspectRatio="xMidYMid meet" height="623" width="1000" xmlns="http://www.w3.org/2000/svg" xmlns:xlink="http://www.w3.org/1999/xlink"><g id="tight-bounds" transform="matrix(1,0,0,1,0.2400000000000091,-0.09999999999999432)"><svg viewBox="0 0 395.52 247.2" height="247.2" width="395.52"><g><svg></svg></g><g><svg viewBox="0 0 395.52 247.2" height="247.2" width="395.52"><g transform="matrix(1,0,0,1,75.54432,86.65823274559193)"><svg viewBox="0 0 244.43135999999998 73.88353450881613" height="73.88353450881613" width="244.43135999999998"><g><svg viewBox="0 0 244.43135999999998 73.88353450881613" height="73.88353450881613" width="244.43135999999998"><g><svg viewBox="0 0 244.43135999999998 73.88353450881613" height="73.88353450881613" width="244.43135999999998"><g><svg viewBox="0 0 244.43135999999998 73.88353450881613" height="73.88353450881613" width="244.43135999999998"><g><svg viewBox="0 0 244.43135999999998 73.88353450881613" height="73.88353450881613" width="244.43135999999998"><g><svg viewBox="0 0 244.43135999999998 73.88353450881613" height="73.88353450881613" width="244.43135999999998"><g transform="matrix(1,0,0,1,0,0)"><svg width="244.43135999999998" viewBox="3.549999952316284 -36.54999923706055 158.7899932861328 48" height="73.88353450881613" data-palette-color="#8f1cec"><path d="M23.25 0L5.45 0Q4.75 0 4.15-0.38 3.55-0.75 3.55-1.5L3.55-1.5 3.55-35.05Q3.55-35.8 4.15-36.18 4.75-36.55 5.45-36.55L5.45-36.55 23.25-36.55Q24.05-36.55 24.38-35.95 24.7-35.35 24.7-34.7L24.7-34.7Q24.7-33.95 24.33-33.35 23.95-32.75 23.25-32.75L23.25-32.75 7.75-32.75 7.75-20.05 15.55-20.05Q16.25-20.05 16.63-19.5 17-18.95 17-18.25L17-18.25Q17-17.65 16.68-17.1 16.35-16.55 15.55-16.55L15.55-16.55 7.75-16.55 7.75-3.8 23.25-3.8Q23.95-3.8 24.33-3.23 24.7-2.65 24.7-1.85L24.7-1.85Q24.7-1.2 24.38-0.6 24.05 0 23.25 0L23.25 0ZM33.85 0.4L33.85 0.4Q31.05 0.4 29.07-1.23 27.1-2.85 27.1-6.25L27.1-6.25Q27.1-9 28.6-10.53 30.1-12.05 32.72-12.63 35.35-13.2 38.8-13.2L38.8-13.2 41.2-13.2 41.2-14.25Q41.2-15.75 40.65-17.18 40.1-18.6 38.92-19.53 37.75-20.45 35.7-20.45L35.7-20.45Q33.95-20.45 32.92-20.1 31.9-19.75 31.3-19.38 30.7-19 30.25-19L30.25-19Q29.5-19 29.1-19.73 28.7-20.45 28.7-21.1L28.7-21.1Q28.7-21.9 29.8-22.55 30.9-23.2 32.55-23.6 34.2-24 35.8-24L35.8-24Q39.3-24 41.4-22.6 43.5-21.2 44.42-19 45.35-16.8 45.35-14.3L45.35-14.3 45.35-1.5Q45.35-0.9 44.77-0.45 44.2 0 43.3 0L43.3 0Q42.5 0 41.95-0.45 41.4-0.9 41.4-1.5L41.4-1.5 41.4-3.5Q40.1-2 38.25-0.8 36.4 0.4 33.85 0.4ZM35.15-2.95L35.15-2.95Q36.6-2.95 37.97-3.75 39.35-4.55 40.27-5.75 41.2-6.95 41.2-8.05L41.2-8.05 41.2-10.65 39.45-10.65Q37.35-10.65 35.47-10.4 33.6-10.15 32.45-9.33 31.3-8.5 31.3-6.7L31.3-6.7Q31.3-4.75 32.4-3.85 33.5-2.95 35.15-2.95ZM57.8 0.4L57.8 0.4Q55.4 0.4 53.55-0.23 51.7-0.85 50.65-1.7 49.59-2.55 49.59-3.4L49.59-3.4Q49.59-3.8 49.8-4.23 50-4.65 50.32-4.98 50.65-5.3 51.05-5.3L51.05-5.3Q51.65-5.3 52.34-4.73 53.05-4.15 54.25-3.55 55.45-2.95 57.7-2.95L57.7-2.95Q60.34-2.95 61.4-3.93 62.45-4.9 62.45-6.1L62.45-6.1Q62.45-7.65 61.55-8.47 60.65-9.3 59.25-9.78 57.84-10.25 56.3-10.7 54.75-11.15 53.34-11.83 51.95-12.5 51.07-13.73 50.2-14.95 50.2-17L50.2-17Q50.2-18.65 51-20.25 51.8-21.85 53.59-22.93 55.4-24 58.4-24L58.4-24Q60.15-24 61.77-23.63 63.4-23.25 64.42-22.63 65.45-22 65.45-21.3L65.45-21.3Q65.45-21 65.25-20.5 65.05-20 64.7-19.6 64.34-19.2 63.8-19.2L63.8-19.2Q63.4-19.2 62.67-19.58 61.95-19.95 60.92-20.3 59.9-20.65 58.45-20.65L58.45-20.65Q56.8-20.65 55.8-20.08 54.8-19.5 54.34-18.73 53.9-17.95 53.9-17.15L53.9-17.15Q53.9-15.9 54.77-15.2 55.65-14.5 57.07-14.08 58.5-13.65 60.05-13.23 61.59-12.8 63-12.03 64.4-11.25 65.3-9.9 66.2-8.55 66.2-6.3L66.2-6.3Q66.2-3.25 64-1.43 61.8 0.4 57.8 0.4ZM70.29 11.45L70.29 11.45Q69.49 11.45 68.94 11.08 68.39 10.7 68.39 9.6L68.39 9.6Q68.39 8.9 68.67 8.35 68.94 7.8 69.59 7.8L69.59 7.8Q70.69 7.8 71.79 7.18 72.89 6.55 73.92 5.33 74.94 4.1 75.69 2.45 76.44 0.8 76.79-1.2L76.79-1.2 68.49-21.45Q68.34-21.75 68.34-22L68.34-22Q68.34-22.55 68.79-23 69.24-23.45 69.87-23.73 70.49-24 71.04-24L71.04-24Q71.44-24 71.84-23.8 72.24-23.6 72.34-23.15L72.34-23.15 78.99-5.75 84.94-23.15Q85.09-23.6 85.47-23.8 85.84-24 86.24-24L86.24-24Q86.74-24 87.37-23.73 87.99-23.45 88.44-23 88.89-22.55 88.89-21.95L88.89-21.95Q88.89-21.65 88.79-21.45L88.79-21.45 81.14-1.1Q80.39 0.95 79.54 3.15 78.69 5.35 77.52 7.23 76.34 9.1 74.59 10.28 72.84 11.45 70.29 11.45ZM103.84 0L94.99 0Q94.14 0 93.62-0.43 93.09-0.85 93.09-1.45L93.09-1.45 93.09-35.1Q93.09-35.7 93.62-36.13 94.14-36.55 94.99-36.55L94.99-36.55 103.84-36.55Q106.89-36.55 109.34-35.48 111.79-34.4 113.22-32.02 114.64-29.65 114.64-25.65L114.64-25.65 114.64-10.9Q114.64-6.9 113.22-4.53 111.79-2.15 109.34-1.07 106.89 0 103.84 0L103.84 0ZM97.29-32.75L97.29-3.8 103.84-3.8Q106.94-3.8 108.69-5.53 110.44-7.25 110.44-10.9L110.44-10.9 110.44-25.65Q110.44-29.3 108.69-31.03 106.94-32.75 103.84-32.75L103.84-32.75 97.29-32.75ZM131.04 0.4L131.04 0.4Q127.79 0.4 125.29-0.83 122.79-2.05 121.34-4.23 119.89-6.4 119.89-9.3L119.89-9.3 119.89-14.55Q119.89-17.1 121.26-19.25 122.64-21.4 124.89-22.7 127.14-24 129.84-24L129.84-24Q132.44-24 134.61-22.8 136.79-21.6 138.11-19.55 139.44-17.5 139.44-14.8L139.44-14.8Q139.44-12.8 138.79-11.93 138.14-11.05 137.14-10.85 136.14-10.65 135.04-10.65L135.04-10.65 124.04-10.65 124.04-9.15Q124.04-6.35 126.04-4.73 128.04-3.1 131.19-3.1L131.19-3.1Q133.04-3.1 134.14-3.6 135.24-4.1 135.94-4.58 136.64-5.05 137.19-5.05L137.19-5.05Q137.74-5.05 138.11-4.73 138.49-4.4 138.69-3.95 138.89-3.5 138.89-3.15L138.89-3.15Q138.89-2.5 137.94-1.68 136.99-0.85 135.21-0.23 133.44 0.4 131.04 0.4ZM124.04-15.25L124.04-13.45 133.29-13.45Q134.64-13.45 135.06-13.78 135.49-14.1 135.49-15.05L135.49-15.05Q135.49-16.55 134.76-17.82 134.04-19.1 132.74-19.9 131.44-20.7 129.79-20.7L129.79-20.7Q128.24-20.7 126.94-19.98 125.64-19.25 124.84-18 124.04-16.75 124.04-15.25L124.04-15.25ZM151.99 0.45L151.99 0.45Q151.34 0.45 150.81 0.23 150.28 0 150.09-0.45L150.09-0.45 141.89-21.2Q141.84-21.3 141.76-21.55 141.69-21.8 141.69-22L141.69-22Q141.69-22.5 142.11-22.93 142.53-23.35 143.16-23.58 143.78-23.8 144.34-23.8L144.34-23.8Q144.74-23.8 145.14-23.6 145.53-23.4 145.69-23L145.69-23 151.99-6 158.28-22.8Q158.44-23.25 158.76-23.53 159.09-23.8 159.64-23.8L159.64-23.8Q160.14-23.8 160.74-23.58 161.34-23.35 161.84-22.93 162.34-22.5 162.34-22L162.34-22Q162.34-21.75 162.26-21.55 162.19-21.35 162.14-21.2L162.14-21.2 153.94-0.45Q153.74-0.05 153.19 0.2 152.64 0.45 151.99 0.45Z" opacity="1" transform="matrix(1,0,0,1,0,0)" fill="#000000" class="undefined-text-0" data-fill-palette-color="primary" id="text-0"></path></svg></g></svg></g></svg></g></svg></g></svg></g></svg></g></svg></g><g><path d="M245.816 0c68.262 0 123.6 55.338 123.6 123.6 0 68.262-55.338 123.6-123.6 123.6-52.133 0-96.728-32.277-114.892-77.937h3.595c17.98 43.778 61.039 74.606 111.297 74.606 66.422 0 120.269-53.846 120.268-120.269 0-66.422-53.846-120.269-120.268-120.269-50.259 0-93.317 30.828-111.297 74.606l-3.595 0c18.163-45.66 62.758-77.937 114.892-77.937z" fill="#9c2ff4" stroke="transparent" data-fill-palette-color="tertiary"></path></g></svg></g><defs></defs></svg><rect width="395.52" height="247.2" fill="none" stroke="none" visibility="hidden"></rect></g></svg></g></svg>